<svg width="16" height="16" viewBox="0 0 16 16" fill="none" xmlns="http://www.w3.org/2000/svg">
<path d="M15.0623 11.3417L8.66414 6.54175L10.2635 5.34175C10.3102 5.30688 10.3481 5.26162 10.3743 5.20954C10.4004 5.15747 10.4141 5.10002 10.4141 5.04175C10.4141 4.41186 10.1639 3.80777 9.71852 3.36237C9.27312 2.91697 8.66903 2.66675 8.03914 2.66675C7.40925 2.66675 6.80516 2.91697 6.35976 3.36237C5.91437 3.80777 5.66414 4.41186 5.66414 5.04175C5.66414 5.1412 5.70365 5.23659 5.77398 5.30691C5.8443 5.37724 5.93969 5.41675 6.03914 5.41675C6.1386 5.41675 6.23398 5.37724 6.30431 5.30691C6.37463 5.23659 6.41414 5.1412 6.41414 5.04175C6.41684 4.62822 6.57709 4.23128 6.86225 3.93178C7.14742 3.63229 7.53604 3.45279 7.94893 3.42984C8.36183 3.40689 8.76795 3.54223 9.08454 3.80828C9.40114 4.07432 9.60439 4.45107 9.65289 4.86175L7.82039 6.23675L7.80727 6.24675L1.01602 11.3417C0.869228 11.4518 0.760761 11.6053 0.705957 11.7804C0.651153 11.9555 0.652784 12.1434 0.710622 12.3176C0.768459 12.4917 0.879574 12.6432 1.02825 12.7508C1.17694 12.8583 1.35566 12.9164 1.53914 12.9167H14.5391C14.7227 12.9166 14.9016 12.8587 15.0505 12.7513C15.1994 12.6439 15.3107 12.4923 15.3687 12.3182C15.4267 12.144 15.4284 11.9559 15.3737 11.7807C15.3189 11.6055 15.2104 11.4519 15.0635 11.3417H15.0623ZM14.656 12.0811C14.6492 12.1066 14.6339 12.1289 14.6127 12.1445C14.5914 12.1601 14.5655 12.1679 14.5391 12.1667H1.53914C1.51296 12.1666 1.48748 12.1583 1.4663 12.1429C1.44512 12.1275 1.4293 12.1058 1.42108 12.081C1.41286 12.0561 1.41266 12.0293 1.4205 12.0043C1.42834 11.9793 1.44382 11.9575 1.46477 11.9417L8.03914 7.0105L14.6123 11.9417C14.6345 11.9564 14.651 11.9783 14.6589 12.0037C14.6669 12.029 14.6659 12.0564 14.656 12.0811Z" fill="white"/>
</svg>
